<?xml version="1.0" standalone="no"?><svg xmlns="http://www.w3.org/2000/svg" viewBox="0 0 1440 320"><path fill="#ffd700" fill-opacity="1" d="M0,32L24,74.7C48,117,96,203,144,213.3C192,224,240,160,288,149.3C336,139,384,181,432,202.7C480,224,528,224,576,197.3C624,171,672,117,720,80C768,43,816,21,864,16C912,11,960,21,1008,21.3C1056,21,1104,11,1152,32C1200,53,1248,107,1296,117.3C1344,128,1392,96,1416,80L1440,64L1440,320L1416,320C1392,320,1344,320,1296,320C1248,320,1200,320,1152,320C1104,320,1056,320,1008,320C960,320,912,320,864,320C816,320,768,320,720,320C672,320,624,320,576,320C528,320,480,320,432,320C384,320,336,320,288,320C240,320,192,320,144,320C96,320,48,320,24,320L0,320Z"></path></svg>